<?xml version="1.0" encoding="UTF-8"?>
<svg id="Layer_1" data-name="Layer 1" xmlns="http://www.w3.org/2000/svg" xmlns:xlink="http://www.w3.org/1999/xlink" viewBox="0 0 1000 1000">
  <defs>
    <style>
      .cls-1, .cls-2 {
        fill: #f8eee2;
      }

      .cls-3, .cls-4 {
        fill: #fff9f3;
      }

      .cls-5 {
        fill: #090909;
      }

      .cls-2, .cls-6, .cls-7, .cls-4 {
        stroke: #090909;
        stroke-linecap: round;
        stroke-linejoin: round;
      }

      .cls-6 {
        fill: none;
      }

      .cls-8 {
        fill: #708cf5;
      }

      .cls-7, .cls-9 {
        fill: #ff8d1d;
      }

      .cls-10 {
        clip-path: url(#clippath);
      }
    </style>
    <clipPath id="clippath">
      <ellipse class="cls-2" cx="860.42" cy="219.56" rx="26.36" ry="108.62" transform="translate(-24.81 149.57) rotate(-9.79)"/>
    </clipPath>
  </defs>
  <g>
    <rect class="cls-5" x="208.42" y="923.69" width="369.98" height="49.49"/>
    <g>
      <path class="cls-8" d="M643.44,606.28c9.88.26,16.48-10.08,12.09-18.94l-68.95-139.14c-1.46-3.51-3.14-6.9-5.03-10.16v-.02s-.01,0-.01,0c-14.22-24.46-40.05-41.44-70.26-43.14l-195.32-10.98-.06-.09-1.45.03h-.31c-.21-.01-.42.02-.63.02l-32.36.62c-56.55,1.08-107.52,37.69-123.15,92.05-.63,2.19-1.21,4.41-1.72,6.65l-40.5,137.42c-2.78,9.43,3.99,18.98,13.81,19.47l97.3,4.9-31.32,259.96c-1.23,10.19,6.73,19.16,16.99,19.16h368.6c8.34,0,15.06-6.82,14.94-15.16l-.14-304.01,47.49,1.35Z"/>
      <path class="cls-5" d="M581.14,925.12H212.54c-5.18,0-10.13-2.22-13.57-6.1-3.44-3.88-5.05-9.05-4.43-14.19l31.19-258.87-96.21-4.85c-4.99-.25-9.52-2.73-12.41-6.81-2.89-4.08-3.74-9.17-2.33-13.97l40.5-137.42c.5-2.19,1.09-4.45,1.72-6.65,15.39-53.54,66.43-91.69,124.11-92.79l32.61-.63c.13,0,.26-.02.4-.02h.35s1.4-.02,1.4-.02c.15-.02.33.04.48.11l194.99,10.96c29.59,1.66,56.16,17.98,71.08,43.64,1.9,3.27,3.61,6.73,5.1,10.29l68.92,139.08c2.22,4.48,1.94,9.67-.75,13.88-2.69,4.21-7.32,6.69-12.28,6.52h0l-46.45-1.32.14,302.96c.06,4.29-1.57,8.35-4.59,11.42-3.02,3.07-7.06,4.76-11.37,4.76ZM314.09,384.85h-.22c-.12.02-.24.03-.37.03l-32.35.62c-56.8,1.08-107.05,38.63-122.19,91.31-.62,2.17-1.2,4.39-1.71,6.6l-40.52,137.48c-1.24,4.2-.49,8.65,2.04,12.21,2.53,3.57,6.48,5.74,10.85,5.96l97.3,4.9c.28.01.54.15.73.36.18.22.26.5.23.78l-31.32,259.96c-.55,4.57.88,9.16,3.94,12.6,3.05,3.44,7.44,5.42,12.04,5.42h368.6c3.76,0,7.28-1.47,9.92-4.15,2.64-2.68,4.06-6.22,4-9.98l-.14-304.02c0-.27.11-.54.31-.73.2-.19.45-.3.74-.29l47.49,1.35c4.29.18,8.21-1.97,10.51-5.58,2.3-3.61,2.54-8.05.64-11.88l-68.95-139.14c-1.48-3.54-3.16-6.92-5-10.1-14.58-25.09-40.54-41.03-69.45-42.65l-195.32-10.98c-.12,0-.23-.03-.34-.08l-1.1.02h-.37Z"/>
    </g>
  </g>
  <g>
    <g>
      <g>
        <path class="cls-1" d="M701.97,480.38c11.94-21.88,16.01-48.33,5.28-71.54l-13.74,5.01s-13.15-37.89-15.28-65.56c-5.28-9.41-43.49,10.44-43.49,10.44,0,0,3.79-10.33,5.69-15.49,2.01-5.47,4.05-11.31,2.85-17.02-1.2-5.71-7.06-10.84-12.6-9.02-5.45,1.78-15.79,24.39-19.04,29.71-19.6,32.03-19.36,73.92-15.92,110.13,1.84,19.3-6.9,218.01-3.56,226.83,20.12,53.27,95.09,54.35,116.72,1.68h0c2.75-10.36,4.33-20.96,4.73-31.59.54-14.37-23.27-142.89-23.64-147.25-.52-6.11,2.38-11.5,5.74-16.62,2.17-3.3,4.52-6.5,6.27-9.71Z"/>
        <path class="cls-5" d="M650.92,725.46c-.33,0-.66,0-.99,0-26.77-.38-49.28-16.18-58.74-41.22-1.77-4.69-.51-52.89,1.62-125.87,1.39-47.62,2.7-92.61,1.88-101.22-3.24-34.05-4.34-77.42,16.06-110.76.78-1.28,2.03-3.66,3.47-6.42,6.12-11.72,11.96-22.36,16.13-23.72,2.41-.79,5.09-.45,7.53.96,3.17,1.83,5.62,5.21,6.38,8.82,1.3,6.16-1.02,12.49-2.89,17.58l-4.8,13.06c8.96-4.46,37.54-17.77,42.53-8.86.07.13.12.27.13.42,1.9,24.77,12.84,58.21,14.89,64.33l12.76-4.65c.49-.18,1.05.05,1.27.53,9.98,21.58,8.04,47.98-5.31,72.46-1.25,2.29-2.82,4.6-4.33,6.83-.66.98-1.33,1.96-1.98,2.95-3.68,5.62-6.04,10.49-5.57,15.97.09,1.11,1.88,11.2,4.34,25.18,6.88,38.98,19.7,111.54,19.3,122.2-.41,10.73-2.01,21.43-4.76,31.81-10.08,24.58-32.59,39.65-58.93,39.65ZM633,317.84c-.64,0-1.32.09-2.01.32-3.72,1.22-11.03,15.21-14.95,22.73-1.52,2.91-2.72,5.21-3.54,6.55-20.09,32.82-18.98,75.76-15.77,109.5.83,8.75-.48,53.79-1.87,101.48-1.65,56.45-3.51,120.43-1.75,125.09,9.16,24.25,30.95,39.54,56.86,39.91,25.93.28,48.12-14.29,57.96-38.26,2.67-10.11,4.25-20.66,4.65-31.24.4-10.45-12.39-82.86-19.27-121.77-2.57-14.55-4.26-24.15-4.37-25.36-.54-6.43,2.51-12.09,5.9-17.26.66-1,1.33-1.99,2-2.98,1.56-2.29,3.03-4.46,4.23-6.66h0c12.86-23.58,14.9-48.95,5.63-69.78l-12.86,4.69c-.25.09-.54.08-.78-.04-.25-.12-.44-.33-.52-.59-.13-.38-13.14-38.11-15.31-65.58-3.86-5.87-27.73,3.6-42.03,11.03-.37.19-.83.14-1.14-.14-.32-.28-.43-.72-.28-1.11l5.69-15.49c1.78-4.84,3.99-10.86,2.81-16.46-.63-3.01-2.76-5.95-5.4-7.47-.97-.56-2.32-1.11-3.87-1.11Z"/>
      </g>
      <polygon class="cls-5" points="627.15 379.96 662.72 415.4 689.3 363.78 683.63 340.32 635.33 358.26 627.15 379.96"/>
    </g>
    <g>
      <g>
        <path class="cls-9" d="M683.59,433.48h0c-9.52,1.64-18.56-4.74-20.2-14.26l-16.06-93.04c-1.64-9.52,4.74-18.56,14.26-20.2h0c9.52-1.64,18.56,4.74,20.2,14.26l16.06,93.04c1.64,9.52-4.74,18.56-14.26,20.2Z"/>
        <path class="cls-5" d="M680.57,434.76c-3.78,0-7.47-1.16-10.63-3.39-4.04-2.85-6.73-7.1-7.57-11.97l-16.06-93.04c-.84-4.87.27-9.78,3.12-13.81,2.85-4.04,7.1-6.73,11.97-7.57,4.87-.84,9.78.27,13.81,3.11,4.04,2.85,6.73,7.1,7.57,11.97l16.06,93.04c1.73,10.05-5.03,19.64-15.09,21.38-1.06.18-2.13.27-3.19.27ZM664.58,306.74c-.94,0-1.89.08-2.84.24-4.33.75-8.12,3.14-10.65,6.73-2.54,3.59-3.52,7.96-2.77,12.3l16.06,93.04c.75,4.33,3.14,8.12,6.73,10.65,3.6,2.54,7.96,3.52,12.3,2.77h0c8.95-1.54,14.97-10.08,13.42-19.03l-16.06-93.04c-.75-4.33-3.14-8.12-6.73-10.65-2.81-1.98-6.09-3.02-9.46-3.02Z"/>
      </g>
      <g>
        <rect class="cls-3" x="633.23" y="291.52" width="57.52" height="32.1" rx="6.1" ry="6.1" transform="translate(-42.67 117.1) rotate(-9.79)"/>
        <path class="cls-5" d="M646.49,327.37c-6.41,0-12.09-4.62-13.22-11.14l-1.24-7.19c-1.26-7.29,3.65-14.25,10.94-15.51l32.24-5.56c7.29-1.26,14.25,3.65,15.51,10.94l1.24,7.19c1.26,7.29-3.65,14.25-10.94,15.51h0l-32.24,5.56c-.77.13-1.53.2-2.29.2ZM677.5,289.81c-.64,0-1.29.05-1.94.17l-32.24,5.56c-6.19,1.07-10.35,6.97-9.28,13.16l1.24,7.19c1.07,6.19,6.97,10.35,13.16,9.28l32.24-5.56c6.19-1.07,10.35-6.97,9.28-13.16l-1.24-7.19c-.96-5.53-5.78-9.45-11.21-9.45ZM680.84,320.61h.02-.02Z"/>
      </g>
      <g>
        <path class="cls-1" d="M578.42,260.64h13.82v18.62h-13.82c-2.29,0-4.14-1.86-4.14-4.14v-10.33c0-2.29,1.86-4.14,4.14-4.14Z" transform="translate(-37.42 103.15) rotate(-9.79)"/>
        <path class="cls-5" d="M582.85,280.36c-1.93,0-3.82-.59-5.43-1.73-2.06-1.45-3.43-3.63-3.86-6.11l-.3-1.73c-.89-5.14,2.57-10.03,7.7-10.92l9.39-1.62c.26-.05.54.02.76.17.22.16.37.39.42.66l3.17,18.35c.05.27-.02.54-.17.76-.15.22-.39.37-.66.42l-9.39,1.62c-.54.09-1.09.14-1.63.14ZM589.7,260.42l-8.39,1.45c-4.03.7-6.74,4.54-6.04,8.57l.3,1.73c.34,1.95,1.41,3.66,3.03,4.8,1.62,1.14,3.59,1.59,5.53,1.25l8.39-1.45-2.82-16.34Z"/>
      </g>
      <g>
        <path class="cls-9" d="M609.95,212.13h72.48v97.65h-72.48c-11.99,0-21.73-9.74-21.73-21.73v-54.19c0-11.99,9.74-21.73,21.73-21.73Z" transform="translate(-35.13 111.89) rotate(-9.79)"/>
        <path class="cls-5" d="M633.25,311.23c-21.6,0-40.76-15.56-44.56-37.55l-1.57-9.07c-4.24-24.58,12.3-48.03,36.89-52.28l49.26-8.5c.55-.09,1.08.27,1.18.83l16.61,96.23c.05.27-.02.54-.17.76-.16.22-.39.37-.66.42l-49.26,8.5c-2.59.45-5.17.66-7.72.66ZM672.61,206.01l-48.26,8.33c-23.47,4.05-39.28,26.45-35.22,49.93l1.57,9.07c4.05,23.47,26.44,39.28,49.93,35.22l48.26-8.33-16.26-94.22Z"/>
      </g>
      <path class="cls-2" d="M673.44,204.83h0l16.61,96.23h0c38.14-6.58,77.44-.93,112.57,16.19l77.77,37.89-45.76-265.07-60.57,61.77c-27.36,27.91-62.49,46.41-100.63,52.99Z"/>
      <ellipse class="cls-4" cx="860.42" cy="222.1" rx="32.8" ry="135.15" transform="translate(-25.24 149.61) rotate(-9.79)"/>
      <g>
        <ellipse class="cls-1" cx="860.42" cy="219.56" rx="26.36" ry="108.62" transform="translate(-24.81 149.57) rotate(-9.79)"/>
        <g class="cls-10">
          <path class="cls-7" d="M805.07,205.39l34.49-5.95c14.09-2.43,27.48,7.02,29.91,21.1h0c2.43,14.09-7.02,27.48-21.1,29.91l-34.49,5.95-8.81-51.01Z"/>
        </g>
        <ellipse class="cls-6" cx="860.42" cy="219.56" rx="26.36" ry="108.62" transform="translate(-24.81 149.57) rotate(-9.79)"/>
      </g>
      <g>
        <line class="cls-1" x1="683.63" y1="202.78" x2="699.75" y2="299.66"/>
        <path class="cls-5" d="M699.75,300.67c-.49,0-.92-.35-1-.85l-16.13-96.88c-.09-.55.28-1.08.84-1.17.54-.1,1.08.28,1.17.84l16.13,96.88c.09.55-.28,1.08-.84,1.17-.06,0-.11.01-.17.01Z"/>
      </g>
    </g>
    <g>
      <g>
        <rect class="cls-1" x="660.36" y="354.64" width="60.41" height="23.96" rx="7.47" ry="7.47" transform="translate(-78.56 226.15) rotate(-17.61)"/>
        <path class="cls-5" d="M673.07,385.2c-2.02,0-4.03-.49-5.89-1.45-3.04-1.58-5.29-4.23-6.32-7.48l-.13-.39c-2.13-6.72,1.6-13.93,8.32-16.07l35.13-11.16c6.73-2.14,13.93,1.6,16.07,8.32l.13.39c2.13,6.72-1.6,13.93-8.32,16.07l-35.13,11.16c-1.27.4-2.57.6-3.86.6ZM708.06,350.09c-1.08,0-2.17.16-3.25.51l-35.13,11.16c-5.65,1.8-8.79,7.86-7,13.51l.13.39c.86,2.73,2.75,4.96,5.31,6.28,2.56,1.33,5.47,1.58,8.2.71l35.13-11.16c5.65-1.8,8.79-7.86,7-13.51l-.13-.39h0c-1.45-4.57-5.7-7.5-10.26-7.5Z"/>
      </g>
      <g>
        <path class="cls-1" d="M659.21,330.92h48.84c3.19,0,5.79,2.59,5.79,5.79v12.39c0,3.19-2.59,5.79-5.79,5.79h-48.84c-3.19,0-5.79-2.59-5.79-5.79v-12.39c0-3.19,2.59-5.79,5.79-5.79Z" transform="translate(-71.73 223.05) rotate(-17.62)"/>
        <path class="cls-5" d="M666.14,361.47c-2.02,0-4.03-.49-5.89-1.45-3.04-1.58-5.29-4.23-6.32-7.48l-.13-.39c-1.03-3.24-.73-6.71.85-9.75,1.58-3.04,4.23-5.29,7.47-6.32l35.13-11.16c6.72-2.14,13.93,1.6,16.07,8.32l.13.39c1.03,3.24.73,6.71-.84,9.75-1.58,3.04-4.23,5.29-7.48,6.32l-35.13,11.16c-1.27.4-2.57.6-3.86.6ZM701.12,326.37c-1.08,0-2.17.16-3.25.5l-35.13,11.16c-2.73.87-4.96,2.75-6.28,5.31-1.33,2.56-1.58,5.47-.71,8.2l.13.39c.86,2.73,2.75,4.96,5.31,6.28,2.56,1.33,5.48,1.58,8.2.71l35.13-11.16c2.73-.87,4.96-2.75,6.28-5.31,1.33-2.56,1.58-5.47.71-8.2l-.13-.39h0c-1.45-4.57-5.7-7.5-10.26-7.5Z"/>
      </g>
      <g>
        <path class="cls-1" d="M719.41,381.62l.03.11c1.94,6.1-1.47,12.67-7.56,14.6l-23.97,7.61c-6.1,1.94-12.67-1.47-14.6-7.56l-.03-.11c-1.94-6.1,1.47-12.67,7.56-14.6l23.96-7.61c6.1-1.94,12.67,1.47,14.61,7.56Z"/>
        <path class="cls-5" d="M684.41,405.5c-5.36,0-10.35-3.44-12.06-8.82-2.14-6.75,1.55-13.88,8.19-15.99l23.96-7.61c3.21-1.02,6.63-.72,9.64.84,3.01,1.56,5.23,4.18,6.24,7.39l.03.1c1.02,3.21.72,6.63-.83,9.64-1.56,3.01-4.18,5.22-7.39,6.24l-23.97,7.61c-1.27.4-2.55.59-3.82.59ZM708.32,374.53c-1.07,0-2.15.17-3.2.5l-23.96,7.61c-5.58,1.77-8.67,7.75-6.9,13.33,1.8,5.68,7.78,8.78,13.36,7.01l23.97-7.61c2.69-.85,4.89-2.71,6.2-5.24,1.31-2.52,1.56-5.4.7-8.09l-.03-.11c-.85-2.69-2.71-4.89-5.24-6.2-1.54-.8-3.21-1.2-4.89-1.2Z"/>
      </g>
      <g>
        <path class="cls-1" d="M725.96,404.12l.12.39c1.96,6.17-1.49,12.83-7.66,14.79l-11.86,3.77c-6.17,1.96-12.83-1.49-14.79-7.66l-.13-.39c-1.96-6.17,1.49-12.83,7.66-14.79l11.86-3.77c6.17-1.96,12.83,1.49,14.79,7.66Z"/>
        <path class="cls-5" d="M703.01,424.64c-2.02,0-4.03-.49-5.89-1.45-3.04-1.58-5.29-4.23-6.32-7.48l-.13-.39c-1.03-3.24-.73-6.71.85-9.75,1.58-3.04,4.23-5.29,7.47-6.32l11.86-3.77c6.73-2.14,13.93,1.6,16.07,8.32,0,0,0,0,0,0l.12.39c1.03,3.24.73,6.7-.85,9.74-1.58,3.04-4.23,5.29-7.47,6.32l-11.86,3.77c-1.27.4-2.57.6-3.86.6ZM714.73,396.92c-1.08,0-2.17.16-3.25.51l-11.86,3.77c-2.73.87-4.96,2.75-6.28,5.31-1.33,2.56-1.58,5.47-.71,8.2l.13.39c.86,2.73,2.75,4.96,5.31,6.28,2.56,1.33,5.48,1.58,8.2.71l11.86-3.77c2.73-.87,4.96-2.75,6.28-5.31,1.33-2.56,1.58-5.47.71-8.2l-.12-.39c-1.45-4.57-5.7-7.5-10.26-7.5Z"/>
      </g>
    </g>
    <g>
      <g>
        <path class="cls-1" d="M634.2,360.73s4.33-12.33,6.22-17.49c2.01-5.47,4.05-11.31,2.85-17.02-1.2-5.71-7.06-10.84-12.6-9.02-5.45,1.78-15.79,24.39-19.04,29.71"/>
        <path class="cls-5" d="M635.16,361.06l-1.92-.67s4.33-12.34,6.23-17.51c1.78-4.84,3.99-10.86,2.81-16.46-.63-3.01-2.76-5.95-5.4-7.47-1.37-.79-3.5-1.57-5.88-.79-3.72,1.22-11.03,15.21-14.95,22.73-1.52,2.91-2.72,5.21-3.54,6.55-.3.48-.93.62-1.4.34-.48-.29-.63-.92-.34-1.4.78-1.28,2.03-3.66,3.47-6.42,6.12-11.72,11.96-22.36,16.13-23.72,2.41-.79,5.09-.45,7.53.96,3.17,1.83,5.62,5.21,6.38,8.82,1.3,6.16-1.02,12.49-2.89,17.58-1.9,5.16-6.22,17.48-6.22,17.48Z"/>
      </g>
      <path class="cls-5" d="M624.57,394.66h-.01c-.56,0-1.01-.47-1.01-1.03.13-11.19,9.32-32.42,9.71-33.31.23-.52.83-.75,1.34-.53.51.22.75.82.52,1.34-.09.22-9.42,21.74-9.54,32.53,0,.56-.46,1.01-1.02,1.01Z"/>
    </g>
  </g>
  <g>
    <g>
      <path class="cls-5" d="M554.28,128.8c.47-.65.89-1.33,1.19-2.09,5.49-6.21,9.14-14.14,9.96-23.03,2.07-22.31-14.34-42.08-36.66-44.15-1.88-.18-3.74-.17-5.57-.09-19.68-16.99-33.4-35.38-67.9-30.94-13.3,1.71-25.66,8.57-33.22,19.64-1.05,1.54-1.98,3.2-2.82,4.9-.68,1.37-18.27,3.35-20.62,3.99-16.44,4.55-37.47,11.32-45.68,27.61-3.63,7.2-4.78,15.32-5.08,23.43-12.4,9.84-17.45,27.26-12.44,43.03l12.93,40.72c2.71-.68,5.52-1.08,8.43-1.08h16.48c1.01,1.72,2.02,3.45,3.01,5.2,5.12,9.04,8.43,18.66,8.04,29.17,21.32-29.81,123.38-22.04,146.03-22.04s41.01-18.36,41.01-41.01c0-13.71-6.76-25.82-17.09-33.27Z"/>
      <path class="cls-5" d="M384.33,226.14c-.11,0-.22-.02-.33-.05-.43-.15-.71-.55-.69-1,.35-9.26-2.24-18.62-7.91-28.63-.89-1.58-1.8-3.14-2.71-4.69h-15.9c-2.66,0-5.41.35-8.19,1.05-.52.13-1.06-.17-1.22-.68l-12.93-40.72c-5.1-16.08-.12-33.63,12.41-43.84.26-6.27,1.11-15.33,5.17-23.39,7.88-15.64,26.91-22.76,46.31-28.13.83-.23,3.21-.58,6.21-1.02,4.4-.65,12.5-1.84,13.84-2.6.93-1.86,1.85-3.46,2.81-4.86,7.48-10.94,19.85-18.26,33.94-20.07,30.11-3.87,44.98,9.68,60.71,24.02,2.48,2.26,5.04,4.6,7.69,6.89,1.99-.07,3.69-.04,5.3.11,11.06,1.03,21.07,6.3,28.16,14.85,7.1,8.55,10.44,19.35,9.42,30.41-.81,8.75-4.3,16.87-10.1,23.47-.18.44-.4.87-.68,1.31,10.49,7.94,16.72,20.39,16.72,33.51,0,23.18-18.85,42.03-42.03,42.03-3,0-7.3-.13-12.74-.3-34.19-1.06-114.26-3.53-132.46,21.92-.19.27-.5.43-.83.43ZM356.8,189.73h16.48c.36,0,.7.19.88.5,1.01,1.72,2.02,3.46,3.02,5.22,5.26,9.3,7.96,18.09,8.18,26.78,21.63-23.88,96-21.58,132.32-20.46,5.43.17,9.71.3,12.68.3,22.05,0,40-17.94,40-39.99,0-12.8-6.23-24.92-16.67-32.44-.22-.16-.37-.4-.41-.67-.04-.27.02-.54.18-.76.49-.68.83-1.26,1.06-1.85.04-.11.11-.22.19-.31,5.58-6.31,8.94-14.07,9.71-22.45.98-10.52-2.2-20.79-8.95-28.92-6.75-8.13-16.26-13.15-26.78-14.12-1.63-.15-3.36-.18-5.43-.09-.27.02-.51-.08-.71-.25-2.77-2.39-5.45-4.83-8.03-7.19-16.04-14.63-29.88-27.27-59.08-23.51-13.51,1.74-25.36,8.74-32.51,19.2-.94,1.37-1.83,2.93-2.75,4.78-.53,1.07-2.7,1.7-15.29,3.55-2.7.4-5.26.78-5.97.97-18.95,5.24-37.52,12.15-45.04,27.08-3.03,6.01-4.61,13.33-4.97,23.01-.01.3-.15.57-.39.76-12.14,9.64-17.01,26.49-12.11,41.92l12.64,39.82c2.63-.59,5.23-.89,7.75-.89ZM418.5,52.38h0Z"/>
    </g>
    <g>
      <g>
        <path class="cls-1" d="M473.74,132.85c-4.24-2.26-8.49-4.8-13.24-5.5-11.74-1.71-22.49,8.14-34.35,7.82-8.53-.23-16.58-6.39-19.03-14.56,6.99,35.98-1.45,74.69-22.77,104.51.39-10.52-2.92-20.13-8.04-29.17-.99-1.75-2-3.48-3.01-5.2h-16.48c-2.91,0-5.73.4-8.43,1.08-15.15,3.8-26.47,17.54-26.47,33.83v3.41c0,19.2,15.71,34.91,34.91,34.91h9.32l-9.33,116.54c-2.73,34.07,22.68,63.91,56.76,66.63l6.02.48c34.07,2.73,63.9-22.68,66.63-56.76l3.51-43.9c30.8-.51,55.61-25.6,55.61-56.51v-136.4c0-5.93-.96-11.63-2.67-17-2.75,1.67-5.66,3.05-8.67,4.09-19.73,6.77-41.84,1.52-60.25-8.29Z"/>
        <path class="cls-5" d="M424.61,448.84c-1.7,0-3.41-.07-5.12-.2l-6.02-.48c-16.75-1.34-31.97-9.12-42.87-21.92-10.9-12.79-16.16-29.06-14.82-45.81l9.24-115.44h-8.21c-19.81,0-35.93-16.12-35.93-35.93v-3.41c0-16.47,11.2-30.79,27.24-34.81,2.94-.74,5.86-1.11,8.68-1.11h16.48c.36,0,.7.19.88.5,1.01,1.72,2.02,3.46,3.02,5.22,5.19,9.17,7.88,17.85,8.17,26.42,19.69-29.08,27.44-66.61,20.75-101.07-.1-.53.23-1.05.76-1.18.53-.13,1.06.18,1.22.69,2.34,7.79,9.95,13.61,18.09,13.83,5.42.15,10.68-1.94,15.81-3.96,5.99-2.36,12.17-4.79,18.66-3.84,4.38.64,8.31,2.76,12.1,4.81l1.47.79h0c12.2,6.51,36.15,16.23,59.44,8.23,2.89-.99,5.74-2.34,8.47-3.99.27-.16.6-.19.89-.08.29.11.52.35.61.64,1.8,5.67,2.72,11.5,2.72,17.31v136.4c0,30.9-24.9,56.5-55.69,57.51l-3.44,42.98c-1.34,16.75-9.12,31.98-21.91,42.87-11.48,9.78-25.77,15.02-40.69,15.02ZM356.8,191.76c-2.66,0-5.41.35-8.19,1.05-15.13,3.8-25.7,17.3-25.7,32.84v3.41c0,18.69,15.2,33.89,33.89,33.89h9.31c.28,0,.55.12.75.33.19.21.29.49.27.77l-9.33,116.54c-1.3,16.21,3.8,31.95,14.34,44.33,10.54,12.38,25.28,19.91,41.49,21.21l6.02.48c16.2,1.31,31.95-3.79,44.33-14.34,12.38-10.54,19.91-25.28,21.21-41.49l3.51-43.9c.04-.52.47-.93,1-.94,30.11-.5,54.61-25.4,54.61-55.5v-136.4c0-5.19-.76-10.38-2.25-15.47-2.51,1.43-5.11,2.61-7.74,3.52-24.01,8.24-48.56-1.7-61.06-8.36l-1.48-.8c-3.64-1.97-7.4-4-11.43-4.59-5.96-.87-11.62,1.36-17.62,3.72-5.32,2.1-10.85,4.25-16.61,4.11-6.66-.18-13.01-3.76-16.89-9.11,4.79,34.18-4,70.59-24.06,98.64-.26.37-.73.52-1.15.37s-.71-.55-.69-1c.35-9.26-2.24-18.62-7.91-28.63-.89-1.58-1.8-3.14-2.71-4.69h-15.9Z"/>
      </g>
      <g>
        <g>
          <polygon class="cls-5" points="374.4 264.05 363.41 294.12 356.52 263.94 374.4 264.05"/>
          <path class="cls-5" d="M363.41,295.14s-.04,0-.06,0c-.45-.03-.83-.35-.93-.79l-6.89-30.18c-.07-.3,0-.62.2-.86.19-.24.56-.36.8-.38l17.88.11c.33,0,.64.17.83.44.19.27.23.62.12.93l-10.99,30.07c-.15.4-.53.67-.96.67ZM357.8,264.97l5.84,25.57,9.31-25.48-15.15-.09Z"/>
        </g>
        <g>
          <polyline class="cls-1" points="351.95 216.14 364.75 230.39 352.77 238.2"/>
          <path class="cls-5" d="M352.78,239.21c-.33,0-.66-.16-.85-.46-.31-.47-.17-1.1.3-1.41l10.98-7.16-12.01-13.36c-.38-.42-.34-1.06.08-1.44.42-.37,1.06-.34,1.44.08l12.8,14.25c.2.22.29.52.25.81-.04.3-.2.56-.45.72l-11.98,7.81c-.17.11-.37.17-.56.17Z"/>
        </g>
        <g>
          <path class="cls-5" d="M489.43,244.7h-9.78c-.56,0-1.02-.46-1.02-1.02s.46-1.02,1.02-1.02h9.78c3.22,0,6.26-1.42,8.33-3.88,2.07-2.47,2.94-5.71,2.38-8.88l-6.04-34.34c-.1-.55.27-1.08.82-1.18.54-.1,1.08.27,1.18.83l6.04,34.34c.66,3.77-.37,7.61-2.83,10.54-2.46,2.93-6.07,4.61-9.89,4.61Z"/>
          <g>
            <path class="cls-5" d="M521.43,213.59c.7,3.86-1.87,7.57-5.73,8.26-3.87.7-7.57-1.86-8.26-5.73-.7-3.86,1.86-7.56,5.73-8.27,3.87-.7,7.57,1.87,8.26,5.73Z"/>
            <path class="cls-5" d="M483.24,309.66c-.32.08-.66.06-.99-.08-.33-.15-8.16-3.59-13.97,2.57-.56.59-1.5.62-2.09.06-.59-.56-.62-1.5-.06-2.09,7.29-7.71,17.26-3.27,17.36-3.22.74.34,1.06,1.21.73,1.96-.19.42-.55.71-.97.82Z"/>
            <g>
              <path class="cls-5" d="M426.25,187.27c3.54.4,7.48-1.22,11.38-2.56,3.9-1.44,7.84-2.79,11.31-3.84,3.48-1.05,7.51-2.13,11.55-3.09,3.99-1.04,8.19-1.89,10.86-4.18,2.6-2.17,2.72-6.15-2.16-9.52-4.63-3.32-14.73-5.4-26.25-1.94-11.49,3.51-18.6,10.8-20.47,16.1-2.04,5.47.37,8.69,3.78,9.03Z"/>
              <path class="cls-5" d="M536.3,181.46c-2.64.5-5.56-.67-8.45-1.61-2.89-1.02-5.82-1.96-8.4-2.68-2.58-.72-5.58-1.43-8.58-2.05-2.96-.69-6.08-1.2-8.06-2.99-1.92-1.68-1.98-5,1.67-8.04,3.47-2.98,11-5.18,19.55-2.83,8.53,2.4,13.77,8.15,15.13,12.48,1.49,4.47-.33,7.26-2.87,7.71Z"/>
            </g>
            <path class="cls-5" d="M459.53,216.05c-.32,4.29-4.06,7.5-8.34,7.18-4.29-.32-7.5-4.06-7.18-8.34.32-4.29,4.06-7.5,8.34-7.17,4.28.32,7.5,4.06,7.18,8.34Z"/>
            <g>
              <path class="cls-1" d="M443.75,223.63s6.95-4.99,13.69.96"/>
              <path class="cls-5" d="M457.43,225.61c-.24,0-.48-.08-.67-.26-6.02-5.32-12.16-1.08-12.42-.89-.46.32-1.09.22-1.42-.24-.33-.46-.22-1.09.23-1.42.08-.06,7.7-5.39,14.95,1.02.42.37.46,1.01.09,1.44-.2.23-.48.34-.76.34Z"/>
            </g>
            <g>
              <path class="cls-1" d="M508.91,223.13s6.29-2.82,12.1.12"/>
              <path class="cls-5" d="M521,224.27c-.16,0-.31-.03-.46-.11-5.31-2.69-11.16-.13-11.22-.1-.51.23-1.11,0-1.34-.51-.23-.51,0-1.11.51-1.35.27-.12,6.8-2.99,12.98.15.5.25.7.87.45,1.37-.18.35-.54.56-.91.56Z"/>
            </g>
          </g>
          <g>
            <path class="cls-3" d="M441.65,246.28c2.69-1.79,6.28-1.35,8.66.84,4.35,3.98,13.81,11.04,27.36,12.42,3.33.34,5.05,4.21,3.62,7.24-3.14,6.65-11.55,16.91-29.07,8.69-21.34-10.01-17.6-24.52-10.58-29.19Z"/>
            <path class="cls-5" d="M464.19,279.51c-3.52,0-7.63-.89-12.39-3.12-13.75-6.45-16.32-14.37-16.63-18.51-.37-4.92,1.96-9.81,5.92-12.44h0c3.03-2.02,7.11-1.63,9.91.93,4.33,3.96,13.57,10.82,26.78,12.16,1.77.18,3.31,1.21,4.22,2.82,1.02,1.8,1.1,3.99.22,5.86-1.62,3.42-6.9,12.3-18.03,12.3ZM442.22,247.12c-2.55,1.7-5.4,5.49-5.02,10.6.48,6.39,5.97,12.37,15.47,16.82,17.63,8.27,25.25-2.99,27.72-8.21.59-1.25.53-2.78-.15-3.99-.59-1.04-1.53-1.68-2.65-1.8-13.8-1.41-23.43-8.55-27.95-12.69-2.11-1.93-5.16-2.24-7.41-.74h0Z"/>
          </g>
        </g>
        <g>
          <path class="cls-5" d="M489.35,347.29s-63.6,4.1-79.3-21.66c0,0,14.14,42.49,76.45,57.26l2.85-35.6Z"/>
          <path class="cls-5" d="M486.5,383.91c-.08,0-.16,0-.23-.03-62.15-14.73-77.04-57.5-77.18-57.93-.16-.49.07-1.03.54-1.24.46-.21,1.03-.05,1.3.39,15.2,24.94,77.74,21.22,78.37,21.17.3-.01.58.09.79.3.21.21.31.5.29.79l-2.85,35.6c-.02.3-.17.57-.42.74-.17.13-.39.19-.6.19ZM414.37,332.37c7,12.51,26.38,38.27,71.21,49.26l2.66-33.25c-8.19.41-54.25,1.83-73.87-16.01Z"/>
        </g>
      </g>
    </g>
  </g>
  <g>
    <g>
      <g>
        <path class="cls-1" d="M131.64,787.14l5.66-146.54,153.84,4.94c-.06.89,14.64-108.85,14.58-107.96l-14.58,107.96-20.48-.63-2.05,48.76s139.47-71.32,151.41-85.7c0,0,40.37-40.25,56.48-51.18,1.73-1.17,3.52-2.33,5.54-2.85,2.02-.53,4.34-.33,5.95,1,2.1,1.73,2.45,4.78,2.33,7.5-.37,8.43-3.71,16.33-7.04,24.14.98-.31,102.92-34.09,108.53-35.5,9.66-2.43,9.19,10.9,2.35,18.13-8.73,9.23-49.33,30.61-51.53,31.13,9.8-.36,19.17-2.35,21.51,13.61,1.62,11.01-8.13,14.07-18.02,15.22,6.24.23,11.6,2.31,12.17,9.73,2.46,12.54-7.96,17.62-18.35,18.91-.31.04-.36.45-.07.56,8.52,3.34,2.63,19.01-9.92,23.56l-70.12,29.57c-7.19,3.25-194.93,146.06-194.93,146.06-21.74,15.23-46.99,18.62-69.67,12.83-37.66-9.6-63.44-44.39-63.59-83.25Z"/>
        <path class="cls-5" d="M216.45,874.1c-7.12,0-14.31-.9-21.47-2.73-37.73-9.62-64.2-44.26-64.35-84.23v-.04l5.66-146.54c.02-.56.44-.97,1.05-.98l152.93,4.91,13.88-102.87c.15-1.12.27-2,.38-2.68l.2-1.5h.07c.24-.96.48-.93,1.05-.88.55.06.95.55.91,1.1l-5.91,43.79c-.27,2.01-.54,4.02-.81,6.04l-7.15,53.1c-.2,1.46-.35,2.57-.48,3.42l-.23,1.69c-.03.23-.14.43-.29.58-.19.36-.43.34-.82.3-.01,0-.02,0-.04,0l-19.37-.6-1.94,46.01c15.34-7.88,138.54-71.41,149.54-84.65.47-.47,40.68-40.52,56.69-51.37,1.86-1.26,3.71-2.44,5.85-2.99,2.57-.66,5.13-.22,6.85,1.2,1.99,1.64,2.87,4.37,2.7,8.33-.35,7.93-3.23,15.3-6.24,22.43.6-.2,1.33-.44,2.17-.72,82.09-27.15,102.03-33.53,104.3-34.1,4.61-1.17,6.71,1.06,7.55,2.49,2.52,4.31.59,12.24-4.22,17.32-7.1,7.51-35.5,23.31-47.16,29.18,7.86-.26,15.36.78,17.41,14.72.56,3.79-.14,6.99-2.07,9.5-2.47,3.21-6.68,4.91-10.82,5.87,4.35,1.52,6.66,4.71,7.05,9.64.9,4.57.17,8.59-2.19,11.85-3.49,4.82-9.7,6.93-14.94,7.83,1.81,1.41,2.76,3.59,2.73,6.33-.08,6.3-5.56,14.77-14.6,18.05l-70.07,29.55c-5.59,2.52-129.81,96.56-194.71,145.93-14.84,10.39-31.75,15.74-49.08,15.74ZM132.66,787.16c.16,39.03,25.99,72.85,62.82,82.24,23.97,6.11,48.42,1.61,68.84-12.68,7.64-5.81,187.88-142.9,195.1-146.16l70.14-29.58c8.15-2.96,13.24-10.7,13.3-16.18.02-1.9-.54-4.39-3.36-5.49-.56-.22-.9-.79-.83-1.39.07-.59.54-1.06,1.14-1.14,7.33-.91,12.89-3.51,15.65-7.32,2.02-2.78,2.63-6.28,1.83-10.38-.46-5.85-4.02-8.65-11.21-8.91-.53-.02-.96-.45-.98-.98-.02-.53.37-.99.9-1.05,8.07-.93,12.99-2.87,15.46-6.09,1.6-2.09,2.15-4.69,1.67-7.97-2.01-13.68-9.04-13.33-17.96-12.86-.83.04-1.67.09-2.51.12-.55-.01-.98-.36-1.05-.88-.07-.52.27-1.01.78-1.13,2.67-.72,42.56-21.88,51.03-30.84,4.48-4.73,5.77-11.77,3.94-14.9-.98-1.67-2.76-2.18-5.3-1.55-2.24.56-22.12,6.93-104.16,34.06-2.65.87-4.19,1.39-4.31,1.42-.38.12-.79.01-1.06-.28-.27-.29-.34-.72-.18-1.09,3.24-7.6,6.59-15.46,6.96-23.79.14-3.28-.5-5.46-1.96-6.67-1.22-1.01-3.11-1.3-5.05-.8-1.83.48-3.52,1.55-5.23,2.71-15.85,10.75-55.93,50.66-56.33,51.06-11.87,14.3-145.96,82.97-151.67,85.89-.32.16-.71.15-1.01-.05-.31-.19-.48-.54-.47-.9l2.01-47.75-131.33-4.22-5.62,145.51Z"/>
      </g>
      <polygon class="cls-5" points="268.9 668.5 208.42 725.51 268.61 694.73 268.9 668.5"/>
      <path class="cls-5" d="M482.41,587.86l-37.93,17.68s35.56-28.23,42.71-30.49l-4.79,12.8Z"/>
    </g>
    <g>
      <path class="cls-1" d="M521.49,606.85s23.06-7.65,27.06-7.82"/>
      <path class="cls-5" d="M521.49,607.86c-.43,0-.82-.27-.97-.7-.18-.53.11-1.11.65-1.29.95-.31,23.24-7.69,27.34-7.87.54-.03,1.03.41,1.06.97.02.56-.41,1.04-.97,1.06-3.17.14-20.41,5.65-26.79,7.77-.11.04-.21.05-.32.05Z"/>
    </g>
    <g>
      <line class="cls-1" x1="548.19" y1="628.84" x2="526.77" y2="635.52"/>
      <path class="cls-5" d="M526.77,636.54c-.43,0-.83-.28-.97-.71-.17-.54.13-1.11.67-1.28l21.42-6.69c.55-.17,1.11.13,1.28.67.17.54-.13,1.11-.67,1.28l-21.42,6.69c-.1.03-.2.05-.3.05Z"/>
    </g>
    <g>
      <line class="cls-1" x1="538.48" y1="657.95" x2="526.87" y2="661.3"/>
      <path class="cls-5" d="M526.87,662.31c-.44,0-.85-.29-.98-.74-.16-.54.16-1.11.7-1.26l11.62-3.34c.55-.16,1.1.16,1.26.7.16.54-.16,1.1-.7,1.26l-11.62,3.34c-.1.03-.19.04-.28.04Z"/>
    </g>
  </g>
</svg>